<?xml version="1.0" encoding="UTF-8"?>
<svg id="Layer_1" data-name="Layer 1" xmlns="http://www.w3.org/2000/svg" viewBox="0 0 513.4609 41.5518">
  <g id="type">
    <path id="type_CompoundPathItem_" data-name="type &amp;lt;CompoundPathItem&amp;gt;" d="M37.3521,29.8477H10.9199l-5.7119,10.5283H0L21.5601,1.1758h5.2637l21.5601,39.2002h-5.3198l-5.7119-10.5283Zm-2.2964-4.2559L24.1357,5.4883,13.2158,25.5918h21.8398Z"/>
    <path id="type_CompoundPathItem_-2" data-name="type &amp;lt;CompoundPathItem&amp;gt;" d="M101.1357,29.6797l4.48,2.2402c-3.6958,5.8799-10.5278,9.6318-20.104,9.6318-14.6157,0-23.5757-8.0635-23.5757-20.7754S70.896,0,85.6802,0c9.4077,0,16.2397,3.8086,19.9355,9.6318l-4.48,2.2402c-3.0801-5.208-8.6797-7.5039-15.5117-7.5039-11.3682,0-18.8721,5.5996-18.8721,16.4082s7.5039,16.4072,18.8721,16.4072c6.832,0,12.4878-2.2393,15.5117-7.5039Z"/>
    <path id="type_CompoundPathItem_-3" data-name="type &amp;lt;CompoundPathItem&amp;gt;" d="M162.1196,40.376l-12.9922-15.0078h-18.6479v15.0078h-4.7598V1.1758h26.3198c8.7358,0,15.0078,4.3682,15.0078,12.0967,0,6.832-4.9277,11.0879-12.1519,11.9277l13.3838,15.1758h-6.1597Zm-10.416-19.376c6.3276,0,10.5278-2.4082,10.5278-7.7275s-4.2002-7.7285-10.5278-7.7285h-21.2803v15.4561h21.2803Z"/>
    <path id="type_CompoundPathItem_-4" data-name="type &amp;lt;CompoundPathItem&amp;gt;" d="M226.6309,36.0078v4.3682h-37.9116V1.1758h37.3516V5.5439h-32.6475v12.7119h27.6636v4.3682h-27.6636v13.3838h33.2075Z"/>
    <path id="type_CompoundPathItem_-5" data-name="type &amp;lt;CompoundPathItem&amp;gt;" d="M326.1421,1.1758V40.376h-4.7041V7.7842l-19.936,24.1357h-.3359l-19.936-24.1357V40.376h-4.5918V1.1758h5.1519l19.6558,23.9678L321.1021,1.1758h5.04Z"/>
    <path id="type_CompoundPathItem_-6" data-name="type &amp;lt;CompoundPathItem&amp;gt;" d="M382.0859,29.8477h-26.4321l-5.7119,10.5283h-5.208L366.2939,1.1758h5.2637l21.5601,39.2002h-5.3198l-5.7119-10.5283Zm-2.2964-4.2559l-10.9199-20.1035-10.9199,20.1035h21.8398Z"/>
    <path id="type_CompoundPathItem_-7" data-name="type &amp;lt;CompoundPathItem&amp;gt;" d="M454.2695,20.7764c0,12.04-9.1841,19.5996-23.52,19.5996h-19.0396V1.1758h19.0396c14.3359,0,23.52,7.5605,23.52,19.6006Zm-4.8159,0c0-10.0244-7.896-15.2324-19.04-15.2324h-14v30.4639h14c11.144,0,19.04-5.208,19.04-15.2314Z"/>
    <path id="type_CompoundPathItem_-8" data-name="type &amp;lt;CompoundPathItem&amp;gt;" d="M513.4609,36.0078v4.3682h-37.9116V1.1758h37.3516V5.5439h-32.6475v12.7119h27.6636v4.3682h-27.6636v13.3838h33.2075Z"/>
  </g>
</svg>