<?xml version="1.0" encoding="UTF-8"?>
<svg id="Layer_1" data-name="Layer 1" xmlns="http://www.w3.org/2000/svg" viewBox="0 0 513.4609 86.7598">
  <g id="type">
    <path id="type_CompoundPathItem_" data-name="type &amp;lt;CompoundPathItem&amp;gt;" d="M37.3521,29.8477H10.9199l-5.7119,10.5283H0L21.5601,1.1758h5.2637l21.5601,39.2002h-5.3198l-5.7119-10.5283Zm-2.2964-4.2559L24.1357,5.4883,13.2158,25.5918h21.8398Z"/>
    <path id="type_CompoundPathItem_-2" data-name="type &amp;lt;CompoundPathItem&amp;gt;" d="M101.1357,29.6797l4.48,2.2402c-3.6958,5.8799-10.5278,9.6318-20.104,9.6318-14.6157,0-23.5757-8.0635-23.5757-20.7754S70.896,0,85.6802,0c9.4077,0,16.2397,3.8086,19.9355,9.6318l-4.48,2.2402c-3.0801-5.208-8.6797-7.5039-15.5117-7.5039-11.3682,0-18.8721,5.5996-18.8721,16.4082s7.5039,16.4072,18.8721,16.4072c6.832,0,12.4878-2.2393,15.5117-7.5039Z"/>
    <path id="type_CompoundPathItem_-3" data-name="type &amp;lt;CompoundPathItem&amp;gt;" d="M162.1196,40.376l-12.9922-15.0078h-18.6479v15.0078h-4.7598V1.1758h26.3198c8.7358,0,15.0078,4.3682,15.0078,12.0967,0,6.832-4.9277,11.0879-12.1519,11.9277l13.3838,15.1758h-6.1597Zm-10.416-19.376c6.3276,0,10.5278-2.4082,10.5278-7.7275s-4.2002-7.7285-10.5278-7.7285h-21.2803v15.4561h21.2803Z"/>
    <path id="type_CompoundPathItem_-4" data-name="type &amp;lt;CompoundPathItem&amp;gt;" d="M226.6309,36.0078v4.3682h-37.9116V1.1758h37.3516V5.5439h-32.6475v12.7119h27.6636v4.3682h-27.6636v13.3838h33.2075Z"/>
    <path id="type_CompoundPathItem_-5" data-name="type &amp;lt;CompoundPathItem&amp;gt;" d="M326.1421,1.1758V40.376h-4.7041V7.7842l-19.936,24.1357h-.3359l-19.936-24.1357V40.376h-4.5918V1.1758h5.1519l19.6558,23.9678L321.1021,1.1758h5.04Z"/>
    <path id="type_CompoundPathItem_-6" data-name="type &amp;lt;CompoundPathItem&amp;gt;" d="M382.0859,29.8477h-26.4321l-5.7119,10.5283h-5.208L366.2939,1.1758h5.2637l21.5601,39.2002h-5.3198l-5.7119-10.5283Zm-2.2964-4.2559l-10.9199-20.1035-10.9199,20.1035h21.8398Z"/>
    <path id="type_CompoundPathItem_-7" data-name="type &amp;lt;CompoundPathItem&amp;gt;" d="M454.2695,20.7764c0,12.04-9.1841,19.5996-23.52,19.5996h-19.0396V1.1758h19.0396c14.3359,0,23.52,7.5605,23.52,19.6006Zm-4.8159,0c0-10.0244-7.896-15.2324-19.04-15.2324h-14v30.4639h14c11.144,0,19.04-5.208,19.04-15.2314Z"/>
    <path id="type_CompoundPathItem_-8" data-name="type &amp;lt;CompoundPathItem&amp;gt;" d="M513.4609,36.0078v4.3682h-37.9116V1.1758h37.3516V5.5439h-32.6475v12.7119h27.6636v4.3682h-27.6636v13.3838h33.2075Z"/>
  </g>
  <path id="fullLogo" d="M86.6094,79.7334h4.4014v1.8242h-4.4014v4.8184h-1.9209v-11.2041h6.6426v1.8242h-4.7217v2.7373Z"/>
  <path id="fullLogo-2" data-name="fullLogo" d="M107.0127,80.7734c0,3.3135-2.4014,5.7949-5.6665,5.7949s-5.666-2.4814-5.666-5.7949,2.4009-5.7939,5.666-5.7939,5.6665,2.4805,5.6665,5.7939Zm-1.9531,0c0-2.1602-1.4565-3.9697-3.7134-3.9697s-3.7134,1.8096-3.7134,3.9697,1.4565,3.9697,3.7134,3.9697,3.7134-1.8086,3.7134-3.9697Z"/>
  <path id="fullLogo-3" data-name="fullLogo" d="M111.936,75.1719h3.6812c2.2251,0,3.7139,1.4404,3.7139,3.4893,0,1.6807-.8965,2.9609-2.4971,3.3613l2.8013,4.3535h-2.2412l-2.6567-4.2256h-.8804v4.2256h-1.9209v-11.2041Zm5.4419,3.4893c0-1.1045-.7681-1.665-2.0005-1.665h-1.5205v3.3291h1.5205c1.2324,0,2.0005-.5596,2.0005-1.6641Z"/>
  <path id="fullLogo-4" data-name="fullLogo" d="M126.2407,75.1719l3.6494,5.6338,3.6494-5.6338h1.7769v11.2041h-1.9209v-7.5234l-3.5054,5.3301-3.5054-5.3301v7.5234h-1.9209v-11.2041h1.7769Z"/>
  <path id="fullLogo-5" data-name="fullLogo" d="M142.8008,79.7178h4.4814v1.8242h-4.4814v3.0088h4.9619v1.8252h-6.8828v-11.2041h6.7866v1.8242h-4.8657v2.7217Z"/>
  <path id="fullLogo-6" data-name="fullLogo" d="M152.8154,75.1719h3.6816c2.2246,0,3.7134,1.4404,3.7134,3.4893,0,1.6807-.8965,2.9609-2.4971,3.3613l2.8013,4.3535h-2.2412l-2.6567-4.2256h-.8804v4.2256h-1.9209v-11.2041Zm5.4419,3.4893c0-1.1045-.7681-1.665-2.0005-1.665h-1.5205v3.3291h1.5205c1.2324,0,2.0005-.5596,2.0005-1.6641Z"/>
  <path id="fullLogo-7" data-name="fullLogo" d="M165.3438,75.1719h1.9209v9.3789h4.7695v1.8252h-6.6904v-11.2041Z"/>
  <path id="fullLogo-8" data-name="fullLogo" d="M180.0815,86.376h-1.9209v-4.418l-3.8257-6.7861h2.1128l2.7373,5.0098,2.7373-5.0098h1.9844l-3.8252,6.7861v4.418Z"/>
  <path id="fullLogo-9" data-name="fullLogo" d="M199.8726,81.7021c-1.6484-.5762-3.5054-1.4727-3.5054-3.5537,0-1.584,1.4087-3.1689,3.6655-3.1689,2.3369,0,3.6494,1.7764,3.6494,1.7764l-1.3286,1.3125s-.9282-1.2646-2.3208-1.2646c-.9604,0-1.7129,.5928-1.7129,1.3447,0,.9766,.8804,1.2803,2.417,1.8574,1.7129,.6396,3.1377,1.4082,3.1377,3.4414s-1.793,3.1211-3.9058,3.1211c-2.8013,0-4.0977-2.2891-4.0977-2.2891l1.4404-1.2168s.9604,1.6807,2.6572,1.6807c.9604,0,1.9526-.3838,1.9526-1.2959,0-.9453-.7202-1.2812-2.0488-1.7451Z"/>
  <path id="fullLogo-10" data-name="fullLogo" d="M219.7314,80.7734c0,3.3135-2.4014,5.7949-5.6665,5.7949s-5.666-2.4814-5.666-5.7949,2.4009-5.7939,5.666-5.7939,5.6665,2.4805,5.6665,5.7939Zm-1.9531,0c0-2.1602-1.4565-3.9697-3.7134-3.9697s-3.7134,1.8096-3.7134,3.9697,1.4565,3.9697,3.7134,3.9697,3.7134-1.8086,3.7134-3.9697Z"/>
  <path id="fullLogo-11" data-name="fullLogo" d="M226.3838,75.1719l5.6025,7.7148v-7.7148h1.9204v11.2041h-1.7285l-5.6021-7.6992v7.6992h-1.9209v-11.2041h1.7285Z"/>
  <path id="fullLogo-12" data-name="fullLogo" d="M258.0674,80.7734c0,3.3135-2.4014,5.7949-5.6665,5.7949s-5.666-2.4814-5.666-5.7949,2.4009-5.7939,5.666-5.7939,5.6665,2.4805,5.6665,5.7939Zm-1.9531,0c0-2.1602-1.4565-3.9697-3.7134-3.9697s-3.7134,1.8096-3.7134,3.9697,1.4565,3.9697,3.7134,3.9697,3.7134-1.8086,3.7134-3.9697Z"/>
  <path id="fullLogo-13" data-name="fullLogo" d="M264.9116,79.7334h4.4014v1.8242h-4.4014v4.8184h-1.9209v-11.2041h6.6426v1.8242h-4.7217v2.7373Z"/>
  <path id="fullLogo-14" data-name="fullLogo" d="M285.7915,75.1719h1.9526l4.354,11.2041h-1.937l-1.0244-2.6572h-4.7378l-1.0244,2.6572h-1.9365l4.3535-11.2041Zm-.7041,6.7861h3.3613l-1.6807-4.3691-1.6807,4.3691Z"/>
  <path id="fullLogo-15" data-name="fullLogo" d="M314.5459,86.7598l-3.3613-8.4033-3.4092,8.4033-4.418-11.5879h2.1768l2.3691,6.7227,2.5449-6.7227h1.585l2.4966,6.7227,2.4331-6.7227h2.001l-4.418,11.5879Z"/>
  <path id="fullLogo-16" data-name="fullLogo" d="M333.8423,80.7734c0,3.3135-2.4009,5.7949-5.6665,5.7949s-5.666-2.4814-5.666-5.7949,2.4009-5.7939,5.666-5.7939,5.6665,2.4805,5.6665,5.7939Zm-1.9531,0c0-2.1602-1.4565-3.9697-3.7134-3.9697s-3.7134,1.8096-3.7134,3.9697,1.4565,3.9697,3.7134,3.9697,3.7134-1.8086,3.7134-3.9697Z"/>
  <path id="fullLogo-17" data-name="fullLogo" d="M349.458,80.7734c0,3.3135-2.4014,5.7949-5.6665,5.7949s-5.666-2.4814-5.666-5.7949,2.4009-5.7939,5.666-5.7939,5.6665,2.4805,5.6665,5.7939Zm-1.9531,0c0-2.1602-1.4565-3.9697-3.7134-3.9697s-3.7134,1.8096-3.7134,3.9697,1.4565,3.9697,3.7134,3.9697,3.7134-1.8086,3.7134-3.9697Z"/>
  <path id="fullLogo-18" data-name="fullLogo" d="M363.5376,80.7734c0,3.2334-2.2729,5.6025-5.5386,5.6025h-3.6172v-11.2041h3.6172c3.2656,0,5.5386,2.3682,5.5386,5.6016Zm-1.9531,0c0-2.0488-1.3765-3.7773-3.5532-3.7773h-1.7285v7.5547h1.7285c2.1768,0,3.5532-1.7441,3.5532-3.7773Z"/>
  <path id="fullLogo-19" data-name="fullLogo" d="M376.5288,83.3984l1.2803,1.2646s-1.4727,1.9053-4.3057,1.9053c-3.2334,0-5.6821-2.4814-5.6821-5.7949s2.4487-5.7939,5.6821-5.7939c2.689,0,4.1455,1.7607,4.1455,1.7607l-1.2964,1.2646s-1.0083-1.2324-2.8491-1.2324c-2.209,0-3.7295,1.8408-3.7295,4.001s1.5205,4.002,3.7295,4.002c1.9688,0,3.0254-1.377,3.0254-1.377Z"/>
  <path id="fullLogo-20" data-name="fullLogo" d="M389.2002,75.1719h1.9209v7.1387c0,2.4648-1.6807,4.2578-4.3218,4.2578s-4.3218-1.793-4.3218-4.2578v-7.1387h1.9209v6.8984c0,1.6006,.8003,2.6729,2.4009,2.6729,1.5845,0,2.4009-1.0723,2.4009-2.6729v-6.8984Z"/>
  <path id="fullLogo-21" data-name="fullLogo" d="M398.814,76.9961h-3.0894v-1.8242h8.0991v1.8242h-3.0894v9.3799h-1.9204v-9.3799Z"/>
  <path id="fullLogo-22" data-name="fullLogo" d="M410.5581,76.9961h-3.0894v-1.8242h8.0991v1.8242h-3.0894v9.3799h-1.9204v-9.3799Z"/>
  <path id="fullLogo-23" data-name="fullLogo" d="M422.0942,79.7178h4.4814v1.8242h-4.4814v3.0088h4.9619v1.8252h-6.8828v-11.2041h6.7866v1.8242h-4.8657v2.7217Z"/>
  <path id="fullLogo-24" data-name="fullLogo" d="M432.1089,75.1719h3.6812c2.2251,0,3.7139,1.4404,3.7139,3.4893,0,1.6807-.8965,2.9609-2.4971,3.3613l2.8013,4.3535h-2.2412l-2.6567-4.2256h-.8804v4.2256h-1.9209v-11.2041Zm5.4419,3.4893c0-1.1045-.7681-1.665-2.0005-1.665h-1.5205v3.3291h1.5205c1.2324,0,2.0005-.5596,2.0005-1.6641Z"/>
</svg>